<mxfile host="app.diagrams.net" agent="Mozilla/5.0 (Windows NT 10.0; Win64; x64) AppleWebKit/537.36 (KHTML, like Gecko) Chrome/126.0.0.0 YaBrowser/24.7.0.0 Safari/537.36" version="24.7.7">
  <diagram name="Страница — 1" id="Lkb5LFdQPW6s4zRaOw3f">
    <mxGraphModel dx="1386" dy="791" grid="1" gridSize="10" guides="1" tooltips="1" connect="1" arrows="1" fold="1" page="1" pageScale="1" pageWidth="827" pageHeight="1169" math="0" shadow="0">
      <root>
        <mxCell id="0" />
        <mxCell id="1" parent="0" />
        <mxCell id="sNPGpCLVdvBp5XY3cOEH-12" style="edgeStyle=orthogonalEdgeStyle;rounded=0;orthogonalLoop=1;jettySize=auto;html=1;" edge="1" parent="1" source="sNPGpCLVdvBp5XY3cOEH-1" target="sNPGpCLVdvBp5XY3cOEH-2">
          <mxGeometry relative="1" as="geometry" />
        </mxCell>
        <mxCell id="sNPGpCLVdvBp5XY3cOEH-16" style="edgeStyle=orthogonalEdgeStyle;rounded=0;orthogonalLoop=1;jettySize=auto;html=1;exitX=1;exitY=0.5;exitDx=0;exitDy=0;entryX=0;entryY=0.5;entryDx=0;entryDy=0;" edge="1" parent="1" source="sNPGpCLVdvBp5XY3cOEH-1" target="sNPGpCLVdvBp5XY3cOEH-6">
          <mxGeometry relative="1" as="geometry" />
        </mxCell>
        <mxCell id="sNPGpCLVdvBp5XY3cOEH-1" value="Главная страница" style="rounded=1;whiteSpace=wrap;html=1;" vertex="1" parent="1">
          <mxGeometry x="120" y="250" width="120" height="60" as="geometry" />
        </mxCell>
        <mxCell id="sNPGpCLVdvBp5XY3cOEH-13" style="edgeStyle=orthogonalEdgeStyle;rounded=0;orthogonalLoop=1;jettySize=auto;html=1;" edge="1" parent="1" source="sNPGpCLVdvBp5XY3cOEH-2" target="sNPGpCLVdvBp5XY3cOEH-3">
          <mxGeometry relative="1" as="geometry" />
        </mxCell>
        <mxCell id="sNPGpCLVdvBp5XY3cOEH-2" value="О нас" style="rounded=1;whiteSpace=wrap;html=1;" vertex="1" parent="1">
          <mxGeometry x="120" y="350" width="120" height="60" as="geometry" />
        </mxCell>
        <mxCell id="sNPGpCLVdvBp5XY3cOEH-14" style="edgeStyle=orthogonalEdgeStyle;rounded=0;orthogonalLoop=1;jettySize=auto;html=1;entryX=0.5;entryY=0;entryDx=0;entryDy=0;" edge="1" parent="1" source="sNPGpCLVdvBp5XY3cOEH-3" target="sNPGpCLVdvBp5XY3cOEH-4">
          <mxGeometry relative="1" as="geometry" />
        </mxCell>
        <mxCell id="sNPGpCLVdvBp5XY3cOEH-3" value="Меню" style="rounded=1;whiteSpace=wrap;html=1;" vertex="1" parent="1">
          <mxGeometry x="120" y="450" width="120" height="60" as="geometry" />
        </mxCell>
        <mxCell id="sNPGpCLVdvBp5XY3cOEH-15" style="edgeStyle=orthogonalEdgeStyle;rounded=0;orthogonalLoop=1;jettySize=auto;html=1;entryX=0.5;entryY=0;entryDx=0;entryDy=0;" edge="1" parent="1" source="sNPGpCLVdvBp5XY3cOEH-4" target="sNPGpCLVdvBp5XY3cOEH-5">
          <mxGeometry relative="1" as="geometry" />
        </mxCell>
        <mxCell id="sNPGpCLVdvBp5XY3cOEH-4" value="Бронирование" style="rounded=1;whiteSpace=wrap;html=1;" vertex="1" parent="1">
          <mxGeometry x="120" y="555" width="120" height="60" as="geometry" />
        </mxCell>
        <mxCell id="sNPGpCLVdvBp5XY3cOEH-5" value="Магазин" style="rounded=1;whiteSpace=wrap;html=1;" vertex="1" parent="1">
          <mxGeometry x="120" y="660" width="120" height="60" as="geometry" />
        </mxCell>
        <mxCell id="sNPGpCLVdvBp5XY3cOEH-17" style="edgeStyle=orthogonalEdgeStyle;rounded=0;orthogonalLoop=1;jettySize=auto;html=1;exitX=0.5;exitY=1;exitDx=0;exitDy=0;" edge="1" parent="1" source="sNPGpCLVdvBp5XY3cOEH-6" target="sNPGpCLVdvBp5XY3cOEH-7">
          <mxGeometry relative="1" as="geometry" />
        </mxCell>
        <mxCell id="sNPGpCLVdvBp5XY3cOEH-6" value="Отзывы и блог" style="rounded=1;whiteSpace=wrap;html=1;" vertex="1" parent="1">
          <mxGeometry x="390" y="250" width="120" height="60" as="geometry" />
        </mxCell>
        <mxCell id="sNPGpCLVdvBp5XY3cOEH-18" style="edgeStyle=orthogonalEdgeStyle;rounded=0;orthogonalLoop=1;jettySize=auto;html=1;exitX=0.5;exitY=1;exitDx=0;exitDy=0;entryX=0.5;entryY=0;entryDx=0;entryDy=0;" edge="1" parent="1" source="sNPGpCLVdvBp5XY3cOEH-7" target="sNPGpCLVdvBp5XY3cOEH-8">
          <mxGeometry relative="1" as="geometry" />
        </mxCell>
        <mxCell id="sNPGpCLVdvBp5XY3cOEH-7" value="Галерея" style="rounded=1;whiteSpace=wrap;html=1;" vertex="1" parent="1">
          <mxGeometry x="390" y="350" width="120" height="60" as="geometry" />
        </mxCell>
        <mxCell id="sNPGpCLVdvBp5XY3cOEH-19" style="edgeStyle=orthogonalEdgeStyle;rounded=0;orthogonalLoop=1;jettySize=auto;html=1;entryX=0.5;entryY=0;entryDx=0;entryDy=0;" edge="1" parent="1" source="sNPGpCLVdvBp5XY3cOEH-8" target="sNPGpCLVdvBp5XY3cOEH-9">
          <mxGeometry relative="1" as="geometry" />
        </mxCell>
        <mxCell id="sNPGpCLVdvBp5XY3cOEH-8" value="Контакты и Локация" style="rounded=1;whiteSpace=wrap;html=1;" vertex="1" parent="1">
          <mxGeometry x="390" y="450" width="120" height="60" as="geometry" />
        </mxCell>
        <mxCell id="sNPGpCLVdvBp5XY3cOEH-20" style="edgeStyle=orthogonalEdgeStyle;rounded=0;orthogonalLoop=1;jettySize=auto;html=1;entryX=0.5;entryY=0;entryDx=0;entryDy=0;" edge="1" parent="1" source="sNPGpCLVdvBp5XY3cOEH-9" target="sNPGpCLVdvBp5XY3cOEH-10">
          <mxGeometry relative="1" as="geometry" />
        </mxCell>
        <mxCell id="sNPGpCLVdvBp5XY3cOEH-9" value="Лояльность и подписка" style="rounded=1;whiteSpace=wrap;html=1;" vertex="1" parent="1">
          <mxGeometry x="390" y="555" width="120" height="60" as="geometry" />
        </mxCell>
        <mxCell id="sNPGpCLVdvBp5XY3cOEH-10" value="Мероприятие" style="rounded=1;whiteSpace=wrap;html=1;" vertex="1" parent="1">
          <mxGeometry x="390" y="660" width="120" height="60" as="geometry" />
        </mxCell>
      </root>
    </mxGraphModel>
  </diagram>
</mxfile>
